<?xml version="1.0" standalone="no"?>
<!DOCTYPE svg PUBLIC "-//W3C//DTD SVG 1.1//EN"
	"http://www.w3.org/Graphics/SVG/1.1/DTD/svg11.dtd">
<svg xmlns="http://www.w3.org/2000/svg" version="1.1"
	xmlns:xlink="http://www.w3.org/1999/xlink"
	xml:space='preserve' color="black"
	width="7.38in" height="3.72in" viewBox="0 0 531 268">
<title>Downloads/out5.abc (:2) tune 1</title>
<!-- Creator: abcm2ps-7.8.9 -->
<!-- CreationDate: Feb 10, 2016 20:55 -->
<!-- CommandLine: Downloads/out5.abc -g -->
<g transform="scale(0.750)" stroke-width="0.70" font-family="Times" font-size="20.00">
<text x="354.13" y="21.67" text-anchor="middle">Lea Oxlee</text>
</g>
<g transform="scale(0.750)" stroke-width="0.70" font-family="Times" font-size="15.00">
<text x="69.83" y="68.01">A</text>
<path stroke="currentColor" fill="none"
	d="M131.53 108.01v-24.00"/>
<path stroke="currentColor" fill="none"
	d="M336.53 108.01v-24.00"/>
<path stroke="currentColor" fill="none"
	d="M558.83 108.01v-24.00"/>
<path stroke="currentColor" fill="none"
	d="M694.93 108.01v-24.00"/>
<path stroke="currentColor" fill="none"
	d="M13.33 108.01h681.60m-681.60 -6h681.60m-681.60 -6h681.60m-681.60 -6h681.60m-681.60 -6h681.60"/>
</g>
<g transform="scale(0.750)" stroke-width="0.70" font-family="Helvetica" font-size="12.00">
<text x="142.93" y="71.61">D</text>
<text x="347.93" y="71.61">G</text>
<text x="570.23" y="71.61">A</text>
<defs>
<path id="utclef" fill="currentColor" d="m-50 -90
	c-72 -41 -72 -158 52 -188
	c150 -10 220 188 90 256
	c-114 52 -275 0 -293 -136
	c-15 -181 93 -229 220 -334
	c88 -87 79 -133 62 -210
	c-51 33 -94 105 -89 186
	c17 267 36 374 49 574
	c6 96 -19 134 -77 135
	c-80 1 -126 -93 -61 -133
	c85 -41 133 101 31 105
	c23 17 92 37 90 -92
	c-10 -223 -39 -342 -50 -617
	c0 -90 0 -162 96 -232
	c56 72 63 230 22 289
	c-74 106 -257 168 -255 316
	c9 153 148 185 252 133
	c86 -65 29 -192 -80 -176
	c-71 12 -105 67 -59 124"/>
<use id="tclef" transform="scale(0.045)"
	xlink:href="#utclef"/>
</defs>
<use x="25.33" y="108.01" xlink:href="#tclef"/>
<defs>
<path id="usharp" fill="currentColor" d="
	m136 -702
	v890
	h32
	v-890
	m128 840
	h32
	v-888
	h-32
	m-232 286
	v116
	l338 -96
	v-116
	m-338 442
	v116
	l338 -98
	v-114"/>
<use id="sh0" transform="translate(-4,5) scale(0.018)"
	xlink:href="#usharp"/>
</defs>
<use x="40.33" y="84.01" xlink:href="#sh0"/>
<use x="45.83" y="93.01" xlink:href="#sh0"/>
<g font-family="serif" font-size="16" font-weight="bold" font-style="normal"
	transform="translate(61.83,108.01) scale(1.2,1)">
	<text y="-1" text-anchor="middle">4</text>
	<text y="-13" text-anchor="middle">4</text>
</g>
<path fill="currentColor"
	d="M83.03 79.21l28.00 2.50v3.20l-28.00 -2.50"/>
<defs>
<ellipse id="hd" rx="4.1" ry="2.9"
	transform="rotate(-20)" fill="currentColor"/>
</defs>
<use x="79.83" y="99.01" xlink:href="#hd"/>
<path d="M83.33 99.01v-18.70" stroke="currentColor" fill="none"/>
<use x="107.23" y="102.01" xlink:href="#hd"/>
<path d="M110.73 102.01v-19.30" stroke="currentColor" fill="none"/>
<path fill="currentColor"
	d="M149.83 81.01l82.80 0.00v3.20l-82.80 -0.00"/>
<use x="146.73" y="105.01" xlink:href="#hd"/>
<path d="M150.23 105.01v-23.00" stroke="currentColor" fill="none"/>
<use x="174.03" y="99.01" xlink:href="#hd"/>
<path d="M177.53 99.01v-17.00" stroke="currentColor" fill="none"/>
<use x="201.43" y="105.01" xlink:href="#hd"/>
<path d="M204.93 105.01v-23.00" stroke="currentColor" fill="none"/>
<use x="228.83" y="99.01" xlink:href="#hd"/>
<path d="M232.33 99.01v-17.00" stroke="currentColor" fill="none"/>
<use x="259.23" y="105.01" xlink:href="#hd"/>
<path d="M262.73 105.01v-20.00" stroke="currentColor" fill="none"/>
<use x="302.13" y="99.01" xlink:href="#hd"/>
<path d="M305.63 99.01v-20.00" stroke="currentColor" fill="none"/>
<use x="351.73" y="96.01" xlink:href="#hd"/>
<path d="M348.23 96.01v20.00" stroke="currentColor" fill="none"/>
<path fill="currentColor"
	d="M390.83 110.21l28.00 2.50v-3.20l-28.00 -2.50"/>
<use x="394.73" y="90.01" xlink:href="#hd"/>
<path d="M391.23 90.01v19.30" stroke="currentColor" fill="none"/>
<use x="422.03" y="93.01" xlink:href="#hd"/>
<path d="M418.53 93.01v18.70" stroke="currentColor" fill="none"/>
<path fill="currentColor"
	d="M448.63 115.21l82.80 0.00v-3.20l-82.80 -0.00"/>
<use x="452.43" y="96.01" xlink:href="#hd"/>
<path d="M448.93 96.01v18.20" stroke="currentColor" fill="none"/>
<use x="479.83" y="90.01" xlink:href="#hd"/>
<path d="M476.33 90.01v24.20" stroke="currentColor" fill="none"/>
<use x="507.23" y="96.01" xlink:href="#hd"/>
<path d="M503.73 96.01v18.20" stroke="currentColor" fill="none"/>
<use x="534.53" y="90.01" xlink:href="#hd"/>
<path d="M531.03 90.01v24.20" stroke="currentColor" fill="none"/>
<defs>
<path id="Hd" fill="currentColor" d="m3 -1.6
	c-1 -1.8 -7 1.4 -6 3.2
	c1 1.8 7 -1.4 6 -3.2
	m0.5 -0.3
	c2 3.8 -5 7.6 -7 3.8
	c-2 -3.8 5 -7.6 7 -3.8"/>
</defs>
<use x="574.03" y="93.01" xlink:href="#Hd"/>
<circle fill="currentColor" cx="583.03" cy="93.01" r="1.2"/>
<path d="M570.53 93.01v20.00" stroke="currentColor" fill="none"/>
<path fill="currentColor"
	d="M639.43 113.21l28.00 2.50v-3.20l-28.00 -2.50"/>
<use x="643.23" y="93.01" xlink:href="#hd"/>
<path d="M639.73 93.01v19.30" stroke="currentColor" fill="none"/>
<use x="670.63" y="96.01" xlink:href="#hd"/>
<path d="M667.13 96.01v18.70" stroke="currentColor" fill="none"/>
<path stroke="currentColor" fill="none"
	d="M237.73 181.01v-24.00"/>
<path stroke="currentColor" fill="none"
	d="M466.33 181.01v-24.00"/>
<path stroke="currentColor" fill="none" stroke-width="3"
	d="M693.43 181.01v-24.00"/>
<path stroke="currentColor" fill="none"
	d="M688.93 181.01v-24.00"/>
<defs>
<g id="rdots" fill="currentColor">
	<circle cx="0" cy="-9" r="1.2"/>
	<circle cx="0" cy="-15" r="1.2"/>
</g>
</defs>
<use x="684.93" y="181.01" xlink:href="#rdots"/>
<path stroke="currentColor" fill="none"
	d="M13.33 181.01h681.60m-681.60 -6h681.60m-681.60 -6h681.60m-681.60 -6h681.60m-681.60 -6h681.60"/>
<text x="60.03" y="142.61">D</text>
<text x="245.23" y="142.61">Em</text>
<text x="355.93" y="142.61">A7</text>
<text x="477.33" y="142.61">D</text>
<text x="583.73" y="142.61">Em</text>
<use x="25.33" y="181.01" xlink:href="#tclef"/>
<use x="40.33" y="157.01" xlink:href="#sh0"/>
<use x="45.83" y="166.01" xlink:href="#sh0"/>
<use x="63.83" y="172.01" xlink:href="#hd"/>
<path d="M67.33 172.01v-20.00" stroke="currentColor" fill="none"/>
<use x="105.83" y="157.01" xlink:href="#hd"/>
<path d="M102.33 157.01v20.00" stroke="currentColor" fill="none"/>
<path fill="currentColor"
	d="M143.93 177.21l27.40 2.50v-3.20l-27.40 -2.50"/>
<use x="147.73" y="157.01" xlink:href="#hd"/>
<path d="M144.23 157.01v19.30" stroke="currentColor" fill="none"/>
<use x="174.43" y="160.01" xlink:href="#hd"/>
<path d="M170.93 160.01v18.70" stroke="currentColor" fill="none"/>
<use x="204.13" y="157.01" xlink:href="#hd"/>
<path d="M200.63 157.01v20.00" stroke="currentColor" fill="none"/>
<path fill="currentColor"
	d="M248.73 180.81l80.80 7.40v-3.20l-80.80 -7.40"/>
<use x="252.53" y="160.01" xlink:href="#hd"/>
<path d="M249.03 160.01v19.90" stroke="currentColor" fill="none"/>
<use x="279.33" y="163.01" xlink:href="#hd"/>
<path d="M275.83 163.01v19.30" stroke="currentColor" fill="none"/>
<use x="306.03" y="166.01" xlink:href="#hd"/>
<path d="M302.53 166.01v18.80" stroke="currentColor" fill="none"/>
<use x="332.73" y="169.01" xlink:href="#hd"/>
<path d="M329.23 169.01v18.20" stroke="currentColor" fill="none"/>
<path fill="currentColor"
	d="M358.63 191.21l80.80 0.00v-3.20l-80.80 -0.00"/>
<use x="362.43" y="166.01" xlink:href="#hd"/>
<path d="M358.93 166.01v24.20" stroke="currentColor" fill="none"/>
<use x="389.13" y="166.01" xlink:href="#hd"/>
<defs>
<path id="unat" fill="currentColor" d="
	m96 -750
	h-32
	v716
	l32 -8
	l182 -54
	v282
	h32
	v-706
	l-34 10
	l-180 50
	v-290
	m0 592
	v-190
	l182 -52
	v188"/>
<use id="nt0" transform="translate(-3,5) scale(0.018)"
	xlink:href="#unat"/>
</defs>
<use x="380.13" y="166.01" xlink:href="#nt0"/>
<path d="M385.63 166.01v24.20" stroke="currentColor" fill="none"/>
<use x="415.83" y="169.01" xlink:href="#hd"/>
<path d="M412.33 169.01v21.20" stroke="currentColor" fill="none"/>
<use x="442.63" y="172.01" xlink:href="#hd"/>
<path d="M439.13 172.01v18.20" stroke="currentColor" fill="none"/>
<path fill="currentColor"
	d="M484.33 154.01l80.80 0.00v3.20l-80.80 -0.00"/>
<use x="481.13" y="175.01" xlink:href="#hd"/>
<path d="M484.63 175.01v-20.00" stroke="currentColor" fill="none"/>
<use x="507.93" y="172.01" xlink:href="#hd"/>
<path d="M511.43 172.01v-17.00" stroke="currentColor" fill="none"/>
<use x="534.63" y="175.01" xlink:href="#hd"/>
<path d="M538.13 175.01v-20.00" stroke="currentColor" fill="none"/>
<use x="561.33" y="178.01" xlink:href="#hd"/>
<path d="M564.83 178.01v-23.00" stroke="currentColor" fill="none"/>
<path fill="currentColor"
	d="M594.23 160.01l80.80 0.00v3.20l-80.80 -0.00"/>
<use x="591.03" y="181.01" xlink:href="#hd"/>
<path d="M594.53 181.01v-20.00" stroke="currentColor" fill="none"/>
<use x="617.73" y="178.01" xlink:href="#hd"/>
<path d="M621.23 178.01v-17.00" stroke="currentColor" fill="none"/>
<use x="644.43" y="184.01" xlink:href="#hd"/>
<path d="M647.93 184.01v-23.00" stroke="currentColor" fill="none"/>
<use x="671.13" y="181.01" xlink:href="#hd"/>
<path d="M674.63 181.01v-20.00" stroke="currentColor" fill="none"/>
<path stroke="currentColor" fill="none"
	d="M210.83 254.01v-24.00"/>
<path stroke="currentColor" fill="none"
	d="M415.13 254.01v-24.00"/>
<path stroke="currentColor" fill="none"
	d="M584.33 254.01v-24.00"/>
<path stroke="currentColor" fill="none" stroke-width="3"
	d="M693.43 254.01v-24.00"/>
<path stroke="currentColor" fill="none"
	d="M688.93 254.01v-24.00"/>
<use x="684.93" y="254.01" xlink:href="#rdots"/>
<path stroke="currentColor" fill="none"
	d="M13.33 254.01h681.60m-681.60 -6h681.60m-681.60 -6h681.60m-681.60 -6h681.60m-681.60 -6h681.60"/>
<text x="58.53" y="215.61">F♯</text>
<text x="217.53" y="215.61">E7</text>
<text x="321.83" y="215.61">A7</text>
<text x="423.83" y="215.61">A</text>
<text x="491.73" y="215.61">E7</text>
<text x="593.03" y="215.61">A</text>
<use x="25.33" y="254.01" xlink:href="#tclef"/>
<use x="40.33" y="230.01" xlink:href="#sh0"/>
<use x="45.83" y="239.01" xlink:href="#sh0"/>
<use x="63.83" y="236.01" xlink:href="#hd"/>
<path d="M60.33 236.01v20.00" stroke="currentColor" fill="none"/>
<use x="98.83" y="230.01" xlink:href="#hd"/>
<path d="M95.33 230.01v20.00" stroke="currentColor" fill="none"/>
<use x="133.73" y="230.01" xlink:href="#hd"/>
<path d="M130.23 230.01v20.00" stroke="currentColor" fill="none"/>
<path fill="currentColor"
	d="M164.83 252.71l23.00 -2.40v-3.20l-23.00 2.40"/>
<use x="168.73" y="233.01" xlink:href="#hd"/>
<path d="M165.23 233.01v18.70" stroke="currentColor" fill="none"/>
<use x="191.03" y="230.01" xlink:href="#hd"/>
<path d="M187.53 230.01v19.30" stroke="currentColor" fill="none"/>
<use x="223.33" y="227.01" xlink:href="#hd"/>
<path d="M219.83 227.01v20.00" stroke="currentColor" fill="none"/>
<use x="258.33" y="230.01" xlink:href="#hd"/>
<path d="M254.83 230.01v20.00" stroke="currentColor" fill="none"/>
<defs>
<path id="r4" fill="currentColor" d="m-1 -8.5
	l3.6 5.1 -2.1 5.2 2.2 4.3
	c-2.6 -2.3 -5.1 0 -2.4 2.6
	c-4.8 -3 -1.5 -6.9 1.4 -4.1
	l-3.1 -4.5 1.9 -5.1 -1.5 -3.5"/>
</defs>
<use x="293.23" y="242.01" xlink:href="#r4"/>
<path fill="currentColor"
	d="M324.43 264.21l67.70 -3.90v-3.20l-67.70 3.90"/>
<use x="328.23" y="245.01" xlink:href="#hd"/>
<path d="M324.73 245.01v18.20" stroke="currentColor" fill="none"/>
<use x="350.53" y="242.01" xlink:href="#hd"/>
<path d="M347.03 242.01v19.90" stroke="currentColor" fill="none"/>
<use x="372.83" y="236.01" xlink:href="#hd"/>
<path d="M369.33 236.01v24.70" stroke="currentColor" fill="none"/>
<use x="395.33" y="239.01" xlink:href="#hd"/>
<use x="386.33" y="239.01" xlink:href="#sh0"/>
<path d="M391.83 239.01v20.40" stroke="currentColor" fill="none"/>
<use x="427.63" y="239.01" xlink:href="#hd"/>
<path d="M424.13 239.01v20.00" stroke="currentColor" fill="none"/>
<use x="462.63" y="233.01" xlink:href="#hd"/>
<path d="M459.13 233.01v20.00" stroke="currentColor" fill="none"/>
<path fill="currentColor"
	d="M493.73 254.11l67.60 7.20v-3.20l-67.60 -7.20"/>
<use x="497.53" y="233.01" xlink:href="#hd"/>
<path d="M494.03 233.01v20.10" stroke="currentColor" fill="none"/>
<use x="519.83" y="236.01" xlink:href="#hd"/>
<path d="M516.33 236.01v19.50" stroke="currentColor" fill="none"/>
<use x="542.23" y="239.01" xlink:href="#hd"/>
<path d="M538.73 239.01v18.80" stroke="currentColor" fill="none"/>
<use x="564.53" y="242.01" xlink:href="#hd"/>
<path d="M561.03 242.01v18.20" stroke="currentColor" fill="none"/>
<use x="596.83" y="245.01" xlink:href="#hd"/>
<path d="M600.33 245.01v-20.00" stroke="currentColor" fill="none"/>
<use x="631.83" y="245.01" xlink:href="#hd"/>
<path d="M635.33 245.01v-20.00" stroke="currentColor" fill="none"/>
<use x="666.73" y="245.01" xlink:href="#hd"/>
<path d="M670.23 245.01v-20.00" stroke="currentColor" fill="none"/>
</g>
<g transform="scale(0.750)" stroke-width="0.70" font-family="Times" font-size="15.00">
<text x="53.83" y="294.01">B</text>
<path stroke="currentColor" fill="none"
	d="M93.73 334.01v-24.00"/>
<path stroke="currentColor" fill="none"
	d="M208.33 334.01v-24.00"/>
<path stroke="currentColor" fill="none"
	d="M312.73 334.01v-24.00"/>
<path stroke="currentColor" fill="none"
	d="M426.03 334.01v-24.00"/>
<path stroke="currentColor" fill="none"
	d="M525.43 334.01v-24.00"/>
<path stroke="currentColor" fill="none"
	d="M613.43 334.01v-24.00"/>
<path stroke="currentColor" fill="none" stroke-width="3"
	d="M693.43 334.01v-24.00"/>
<path stroke="currentColor" fill="none"
	d="M688.93 334.01v-24.00"/>
<use x="684.93" y="334.01" xlink:href="#rdots"/>
<path stroke="currentColor" fill="none"
	d="M13.33 334.01h681.60m-681.60 -6h681.60m-681.60 -6h681.60m-681.60 -6h681.60m-681.60 -6h681.60"/>
</g>
<g transform="scale(0.750)" stroke-width="0.70" font-family="Helvetica" font-size="12.00">
<text x="102.33" y="295.61">A</text>
<text x="217.03" y="295.61">D</text>
<text x="265.23" y="295.61">A</text>
<text x="321.43" y="295.61">D</text>
<text x="378.63" y="295.61">A</text>
<text x="430.53" y="295.61">D♯m</text>
<text x="531.43" y="295.61">A7</text>
<text x="622.13" y="295.61">D</text>
<use x="25.33" y="334.01" xlink:href="#tclef"/>
<use x="40.33" y="310.01" xlink:href="#sh0"/>
<use x="45.83" y="319.01" xlink:href="#sh0"/>
<path fill="currentColor"
	d="M60.03 332.61l16.40 -2.30v-3.20l-16.40 2.30"/>
<use x="63.83" y="313.01" xlink:href="#hd"/>
<path d="M60.33 313.01v18.60" stroke="currentColor" fill="none"/>
<use x="79.53" y="310.01" xlink:href="#hd"/>
<path d="M76.03 310.01v19.40" stroke="currentColor" fill="none"/>
<use x="106.23" y="313.01" xlink:href="#hd"/>
<path d="M102.73 313.01v20.00" stroke="currentColor" fill="none"/>
<defs>
<path id="hl" stroke="currentColor" d="m-6 0h12"/>
</defs>
<use x="130.33" y="304.01" xlink:href="#hl"/>
<use x="130.33" y="304.01" xlink:href="#hd"/>
<path d="M126.83 304.01v20.00" stroke="currentColor" fill="none"/>
<use x="154.43" y="313.01" xlink:href="#hd"/>
<path d="M150.93 313.01v20.00" stroke="currentColor" fill="none"/>
<path fill="currentColor"
	d="M174.63 332.61l16.40 -2.30v-3.20l-16.40 2.30"/>
<use x="178.53" y="313.01" xlink:href="#hd"/>
<path d="M175.03 313.01v18.60" stroke="currentColor" fill="none"/>
<use x="194.23" y="310.01" xlink:href="#hd"/>
<path d="M190.73 310.01v19.40" stroke="currentColor" fill="none"/>
<use x="220.83" y="307.01" xlink:href="#hd"/>
<path d="M217.33 307.01v20.00" stroke="currentColor" fill="none"/>
<use x="244.93" y="310.01" xlink:href="#hd"/>
<path d="M241.43 310.01v20.00" stroke="currentColor" fill="none"/>
<use x="269.13" y="313.01" xlink:href="#hd"/>
<path d="M265.63 313.01v20.00" stroke="currentColor" fill="none"/>
<use x="293.23" y="319.01" xlink:href="#hd"/>
<path d="M289.73 319.01v20.00" stroke="currentColor" fill="none"/>
<use x="325.23" y="316.01" xlink:href="#hd"/>
<path d="M321.73 316.01v20.00" stroke="currentColor" fill="none"/>
<path fill="currentColor"
	d="M345.53 335.31l16.40 -3.50v-3.20l-16.40 3.50"/>
<use x="349.33" y="316.01" xlink:href="#hd"/>
<path d="M345.83 316.01v18.20" stroke="currentColor" fill="none"/>
<use x="365.03" y="310.01" xlink:href="#hd"/>
<path d="M361.53 310.01v20.80" stroke="currentColor" fill="none"/>
<use x="382.43" y="313.01" xlink:href="#hd"/>
<path d="M378.93 313.01v20.00" stroke="currentColor" fill="none"/>
<use x="406.53" y="319.01" xlink:href="#hd"/>
<path d="M403.03 319.01v20.00" stroke="currentColor" fill="none"/>
<use x="438.53" y="316.01" xlink:href="#hd"/>
<circle fill="currentColor" cx="446.53" cy="313.01" r="1.2"/>
<path d="M435.03 316.01v20.00" stroke="currentColor" fill="none"/>
<use x="466.73" y="313.01" xlink:href="#hd"/>
<path d="M463.23 313.01v20.00" stroke="currentColor" fill="none"/>
<path fill="currentColor"
	d="M463.23 333.01c0.6 -5.6 9.6 -9 5.6 -18.4
	c1.6 6 -1.3 11.6 -5.6 12.8
"/>
<use x="484.03" y="316.01" xlink:href="#hd"/>
<path d="M480.53 316.01v20.00" stroke="currentColor" fill="none"/>
<use x="505.83" y="325.01" xlink:href="#hd"/>
<path d="M509.33 325.01v-20.00" stroke="currentColor" fill="none"/>
<use x="537.93" y="328.01" xlink:href="#hd"/>
<path d="M541.43 328.01v-20.00" stroke="currentColor" fill="none"/>
<use x="562.03" y="334.01" xlink:href="#hd"/>
<path d="M565.53 334.01v-20.00" stroke="currentColor" fill="none"/>
<use x="586.13" y="334.01" xlink:href="#Hd"/>
<path d="M589.63 334.01v-20.00" stroke="currentColor" fill="none"/>
<use x="625.93" y="331.01" xlink:href="#hd"/>
<path d="M629.43 331.01v-20.00" stroke="currentColor" fill="none"/>
<use x="650.03" y="337.01" xlink:href="#hd"/>
<path d="M653.53 337.01v-20.00" stroke="currentColor" fill="none"/>
<use x="674.13" y="337.01" xlink:href="#hd"/>
<path d="M677.63 337.01v-20.00" stroke="currentColor" fill="none"/>
</g>
</svg>
